<svg xmlns="http://www.w3.org/2000/svg" width="66" height="46" viewBox="0 0 66 46"><path d="M41.195 34.701v-4.828c-4.37.283-12.152 1.755-18.048 7.965l4.56-11.167a.632.632 0 0 1 .57-.374.65.65 0 0 1 .578.374l1.788 4.497a25.012 25.012 0 0 1 4.405-1.624l-2.869-6.906c-.74-1.68-2.358-2.365-3.866-2.365-2.011 0-3.197 1.33-3.844 2.815l-9.562 22.466h5.088l1.285-3.143-.23.567c3.908-4.037 7.822-5.948 11.611-6.962l3.894 9.538H41.8l-4.383-10.44c1.284-.165 2.545-.286 3.777-.413zm19.552-13.959V39.87h-.074a6.316 6.316 0 0 0-.482-.904l-8.825-15.322c-1.15-1.92-2.891-3.153-5.23-3.153-.93 0-2.498.214-3.35.545v24.517h4.64v-19.12h.069c.153.325.301.613.485.905L56.9 42.65c1.142 1.92 2.89 3.156 5.226 3.156.93 0 2.404-.219 3.26-.54V20.741h-4.639zm-52.3 10.596c-.986 0-1.976-.047-3.02-.201V20.683a16.846 16.846 0 0 1 3.177-.303c3.801 0 6.61 1.386 6.61 4.973 0 3.922-2.914 5.985-6.768 5.985zm11.36-5.747c0-6.722-5.518-9.162-11.531-9.162-2.85 0-4.876.22-7.638.833v28.292h4.789v-10.53c.95.135 1.807.221 2.759.221 6.237 0 11.621-3.277 11.621-9.654zM31.125 4.258c.78 0 1.561.26 2.025.439l.448-1.186a6.897 6.897 0 0 0-2.556-.52c-2.522 0-4.166 1.739-4.166 4.241 0 2.633 1.976 4.226 4.349 4.226.83 0 1.643-.179 2.373-.504l-.432-1.138c-.48.18-1.128.39-1.858.39-1.494 0-2.772-1.154-2.772-3.006 0-1.495.813-2.942 2.59-2.942zm7.867 5.948c-1.593 0-2.373-1.349-2.373-2.974 0-1.625.78-2.974 2.373-2.974 1.593 0 2.357 1.35 2.357 2.974 0 1.625-.764 2.974-2.357 2.974zm-.016-7.216c-2.407 0-4.017 1.772-4.017 4.242 0 2.47 1.61 4.242 4.017 4.242 2.406 0 4.033-1.772 4.033-4.242 0-2.47-1.627-4.242-4.033-4.242zm-17.127 0c-1.213 0-2.458.407-3.586.83 0 0 .117.73.117 1.088v6.387h1.493V5.087c0-.146-.033-.406-.033-.406.63-.26 1.311-.423 1.976-.423 1.178 0 1.875.618 1.875 1.804v5.233h1.494v-5.51c0-2.063-1.412-2.795-3.336-2.795zm-9.095 7.216c-1.112 0-1.81-.39-1.81-1.235 0-.91.88-1.17 1.843-1.381.614-.13 1.278-.244 1.66-.537v2.552c0 .114.033.325.033.325a5.478 5.478 0 0 1-1.726.276zm3.186-4.615c0-1.707-1.061-2.6-3.037-2.6-.88 0-1.992.276-2.805.65l.515 1.137c.348-.146 1.344-.52 2.19-.52.714 0 1.627.163 1.627 1.105 0 .797-1.095.927-2.29 1.17-1.361.277-2.855.764-2.855 2.552 0 1.592 1.444 2.389 3.469 2.389 1.145 0 2.323-.293 3.303-.601 0 0-.117-.7-.117-1.04V5.59zM3.41 10.093a7.1 7.1 0 0 1-1.178-.098V6.29h1.277c1.378 0 2.69.292 2.69 1.917 0 1.512-1.528 1.886-2.79 1.886zM2.232 1.479c.398-.081.813-.13 1.227-.13 1.196 0 2.308.406 2.308 1.755 0 1.382-1.079 1.804-2.308 1.804H2.232v-3.43zm3.436 4.063V5.51c1.078-.374 1.775-1.317 1.775-2.438C7.443.682 5.485 0 3.377 0 2.464 0 1.12.195.638.292v10.906c.78.162 1.826.276 2.74.276 2.173 0 4.497-.65 4.497-3.202 0-1.414-.813-2.405-2.207-2.73z" fill="#0066B2" fill-rule="evenodd"/></svg>